<?xml version="1.0" encoding="utf-8"?>
<!-- Generator: Adobe Illustrator 19.2.0, SVG Export Plug-In . SVG Version: 6.00 Build 0)  -->
<svg version="1.1"
	 id="Layer_1" xmlns:cc="http://creativecommons.org/ns#" xmlns:dc="http://purl.org/dc/elements/1.1/" xmlns:rdf="http://www.w3.org/1999/02/22-rdf-syntax-ns#"
	 xmlns="http://www.w3.org/2000/svg" xmlns:xlink="http://www.w3.org/1999/xlink" x="0px" y="0px" viewBox="0 0 32 32"
	 style="enable-background:new 0 0 32 32;" xml:space="preserve">
<style type="text/css">
	.st0{fill:#31363B;}
	.st1{fill:#3DAEE9;}
</style>
<path class="st0" d="M5,0h22c2.8,0,5,2.2,5,5v22c0,2.8-2.2,5-5,5H5c-2.8,0-5-2.2-5-5V5C0,2.2,2.2,0,5,0z"/>
<path class="st1" d="M26.1,11.3c-1.7,0-3.2,1-3.9,2.5c-0.8-2.8-3.3-4.8-6.3-4.8l0,0c-3,0-5.6,2.1-6.4,4.9c-0.7-1.5-2.2-2.5-3.9-2.5
	c-2.4,0-4.3,1.9-4.3,4.3s1.9,4.3,4.3,4.3c1.7,0,3.2-1.1,3.9-2.5c0.8,2.8,3.3,4.9,6.4,4.9c3,0,5.5-2,6.3-4.8c0.7,1.5,2.2,2.5,3.9,2.5
	c2.4,0,4.3-1.9,4.3-4.3S28.4,11.3,26.1,11.3z M5.6,17.3c-1,0-1.8-0.8-1.8-1.8c0-1,0.8-1.8,1.8-1.8s1.8,0.8,1.8,1.8
	S6.6,17.3,5.6,17.3z M15.9,19.7c0-0.4,0-0.7,0-1h-1.1v-1.3h1.1c0-0.2,0-0.3,0-0.6l-1.1,0l0-1.4l1.1,0c0-1,0-1.4,0-1.8l-2.3,0v-1.2
	h2.3c0-0.2,0-0.5,0-0.9c2.3,0,4.1,1.8,4.1,4.1S18.1,19.7,15.9,19.7z M26.1,17.3c-1,0-1.8-0.8-1.8-1.8c0-1,0.8-1.8,1.8-1.8
	c1,0,1.8,0.8,1.8,1.8S27.1,17.3,26.1,17.3z"/>
<path class="st1" d="M18,12.4l0,4.4l-2.1,0c0-0.3,0-0.7,0-1.2v-0.2l0.6,0l0-1.8h-0.6c0-0.3,0-0.6,0-1.2L18,12.4z"/>
<path class="st1" d="M16.3,17.3v1.3h-0.4c0-0.6,0-0.9,0-1.3H16.3z"/>
</svg>
