<?xml version="1.0" encoding="utf-8"?>
<!-- Generator: Adobe Illustrator 19.2.0, SVG Export Plug-In . SVG Version: 6.00 Build 0)  -->
<svg version="1.1"
	 id="Layer_1" xmlns:cc="http://creativecommons.org/ns#" xmlns:dc="http://purl.org/dc/elements/1.1/" xmlns:rdf="http://www.w3.org/1999/02/22-rdf-syntax-ns#"
	 xmlns="http://www.w3.org/2000/svg" xmlns:xlink="http://www.w3.org/1999/xlink" x="0px" y="0px" viewBox="0 0 128 128"
	 style="enable-background:new 0 0 128 128;" xml:space="preserve">
<style type="text/css">
	.st0{fill:#31363B;}
	.st1{fill:#3DAEE9;}
</style>
<path class="st0" d="M20,0h88c11,0,20,9,20,20v88c0,11-9,20-20,20H20c-11,0-20-9-20-20V20C0,9,9,0,20,0z"/>
<path class="st1" d="M63.5,12.8c-26.7,0-48.3,21.6-48.3,48.3c0,26.7,21.6,48.3,48.3,48.3c26.7,0,48.3-21.6,48.3-48.3
	C111.8,34.4,90.2,12.8,63.5,12.8z M63.3,96.3c-19.3,0-35-15.7-35-35c0-19.3,15.7-35,35-35s35,15.7,35,35
	C98.3,80.6,82.6,96.3,63.3,96.3z"/>
<path id="XMLID_19_" class="st1" d="M83.4,48c0,2-0.9,4.7-2.6,6.4C79,56.1,76.9,57,74.5,57H39c0-4,0.9-4.6,2.6-6.3
	c1.8-1.8,3.9-2.7,6.3-2.7H83.4z"/>
<path id="XMLID_5_" class="st1" d="M62.3,75h-1.5H58v9h16.1c2.4,0,4.5-0.9,6.2-2.6C82.1,79.7,83,78,83,75H62.3z"/>
<path id="XMLID_9_" class="st1" d="M56,70.6v-1.2V59h-8v16.1c0,2.4,0.4,4.5,2.1,6.3c1.7,1.7,3.9,2.5,5.9,2.5V70.6z"/>
<path id="XMLID_1_" class="st1" d="M56,46h-8.2c0,0,0.2-10,8.2-10V46z"/>
</svg>
