<?xml version="1.0" encoding="utf-8"?>
<!-- Generator: Adobe Illustrator 19.2.0, SVG Export Plug-In . SVG Version: 6.00 Build 0)  -->
<svg version="1.1"
	 id="Layer_1" xmlns:cc="http://creativecommons.org/ns#" xmlns:dc="http://purl.org/dc/elements/1.1/" xmlns:rdf="http://www.w3.org/1999/02/22-rdf-syntax-ns#"
	 xmlns="http://www.w3.org/2000/svg" xmlns:xlink="http://www.w3.org/1999/xlink" x="0px" y="0px" viewBox="0 0 128 128"
	 style="enable-background:new 0 0 128 128;" xml:space="preserve">
<style type="text/css">
	.st0{fill:#31363B;}
	.st1{fill:#3DAEE9;}
</style>
<path class="st0" d="M20,0h88c11,0,20,9,20,20v88c0,11-9,20-20,20H20c-11,0-20-9-20-20V20C0,9,9,0,20,0z"/>
<path class="st1" d="M107.6,44.5c-7.1,0-13.2,4.3-16,10.4C88.3,43.4,77.8,35,65.3,35l0,0C52.8,35,42.3,43.5,39,55.1
	c-2.8-6.2-9-10.5-16.2-10.5c-9.8,0-17.8,8-17.8,17.8s8,17.8,17.8,17.8c7.2,0,13.4-4.4,16.2-10.5c3.2,11.6,13.8,20.1,26.3,20.1
	c12.5,0,23-8.5,26.2-19.9c2.8,6.1,9,10.4,16,10.4c9.8,0,17.8-8,17.8-17.8S117.4,44.5,107.6,44.5z M22.9,69.7c-4.1,0-7.4-3.2-7.4-7.4
	s3.2-7.4,7.4-7.4s7.4,3.2,7.4,7.4S27,69.7,22.9,69.7z M65.3,79.3c0-1.7,0-3,0-4.1h-4.4v-5.4h4.4c0-0.7,0-1.4,0-2.3l-4.5,0l0-5.6
	l4.4,0c0-4.3,0-5.8,0-7.6l-9.5,0v-4.9h9.6c0-1,0-2.3,0-3.8c9.4,0,17,7.5,17,17S74.7,79.3,65.3,79.3z M107.6,69.7
	c-4.1,0-7.4-3.2-7.4-7.4s3.2-7.4,7.4-7.4s7.4,3.2,7.4,7.4S111.8,69.7,107.6,69.7z"/>
<path class="st1" d="M74.3,49.2l-0.1,18.3l-8.8,0c0-1.3,0-2.9,0-5.1v-0.6l2.4,0l-0.1-7.5h-2.3c0-1.2,0-2.5,0-5L74.3,49.2z"/>
<path class="st1" d="M67.1,69.7v5.4h-1.8c0-2.5,0-3.8,0-5.4H67.1z"/>
</svg>
