<?xml version="1.0" encoding="utf-8"?>
<!-- Generator: Adobe Illustrator 19.2.0, SVG Export Plug-In . SVG Version: 6.00 Build 0)  -->
<svg version="1.1"
	 id="Layer_1" xmlns:cc="http://creativecommons.org/ns#" xmlns:dc="http://purl.org/dc/elements/1.1/" xmlns:rdf="http://www.w3.org/1999/02/22-rdf-syntax-ns#"
	 xmlns="http://www.w3.org/2000/svg" xmlns:xlink="http://www.w3.org/1999/xlink" x="0px" y="0px" viewBox="0 0 32 32"
	 style="enable-background:new 0 0 32 32;" xml:space="preserve">
<style type="text/css">
	.st0{fill:#31363B;}
	.st1{fill:#3DAEE9;}
</style>
<path class="st0" d="M5,0h22c2.8,0,5,2.2,5,5v22c0,2.8-2.2,5-5,5H5c-2.8,0-5-2.2-5-5V5C0,2.2,2.2,0,5,0z"/>
<path class="st1" d="M15.9,3.2C9.2,3.2,3.8,8.6,3.8,15.3c0,6.7,5.4,12.1,12.1,12.1c6.7,0,12.1-5.4,12.1-12.1
	C28,8.6,22.5,3.2,15.9,3.2z M15.8,24.1c-4.8,0-8.8-3.9-8.8-8.8c0-4.8,3.9-8.8,8.8-8.8s8.8,3.9,8.8,8.8
	C24.6,20.2,20.7,24.1,15.8,24.1z"/>
<path id="XMLID_6_" class="st1" d="M20.8,12c0,1-0.2,1-0.7,1.5c-0.4,0.4-1,0.5-1.6,0.5H9.8c0-1,0.2-1,0.6-1.5c0.4-0.4,1-0.5,1.6-0.5
	H20.8z"/>
<path id="XMLID_4_" class="st1" d="M16.4,19h-0.3H15v2h3.9c0.5,0,1-0.5,1.4-0.7c0.4-0.3,0.6-0.7,0.6-1.3H16.4z"/>
<path id="XMLID_3_" class="st1" d="M14,17.7v-0.3V15h-2v3.8c0,0.6,0.1,1.1,0.5,1.6C13,20.8,13,21,14,21V17.7z"/>
<path id="XMLID_2_" class="st1" d="M14,11h-2c0,0,0-2.4,2-2.4V11z"/>
</svg>
