<?xml version="1.0" encoding="utf-8"?>
<!-- Generator: Adobe Illustrator 19.2.0, SVG Export Plug-In . SVG Version: 6.00 Build 0)  -->
<svg version="1.1"
	 id="Layer_1" xmlns:cc="http://creativecommons.org/ns#" xmlns:dc="http://purl.org/dc/elements/1.1/" xmlns:rdf="http://www.w3.org/1999/02/22-rdf-syntax-ns#"
	 xmlns="http://www.w3.org/2000/svg" xmlns:xlink="http://www.w3.org/1999/xlink" x="0px" y="0px" viewBox="0 0 252 120"
	 style="enable-background:new 0 0 252 120;" xml:space="preserve">
<style type="text/css">
	.st0{fill:#3DAEE9;}
</style>
<path class="st0" d="M127,3.2c-26,0-47.9,17.8-54.6,41.8c-5.8-12.8-18.7-21.9-33.6-21.9c-20.3,0-37,16.7-37,37c0,20.3,16.7,37,37,37
	c14.9,0,27.7-9.1,33.6-21.9c6.7,24,28.6,41.8,54.6,41.8c25.9,0,47.7-17.6,54.5-41.4c5.9,12.6,18.6,21.5,33.3,21.5
	c20.3,0,37-16.7,37-37c0-20.3-16.7-37-37-37c-14.7,0-27.4,8.9-33.3,21.5C174.7,20.8,152.9,3.2,127,3.2L127,3.2z M127,24.9
	c19.6,0,35.2,15.6,35.2,35.2c0,19.6-15.6,35.2-35.2,35.2c-19.6,0-35.2-15.6-35.2-35.2C91.8,40.5,107.4,24.9,127,24.9L127,24.9z
	 M38.8,44.8c8.6,0,15.3,6.7,15.3,15.3c0,8.6-6.7,15.3-15.3,15.3c-8.6,0-15.3-6.7-15.3-15.3C23.5,51.5,30.2,44.8,38.8,44.8L38.8,44.8
	z M214.8,44.8c8.6,0,15.3,6.7,15.3,15.3c0,8.6-6.7,15.3-15.3,15.3c-8.6,0-15.3-6.7-15.3-15.3C199.5,51.5,206.2,44.8,214.8,44.8
	L214.8,44.8z"/>
<path id="XMLID_19_" class="st0" d="M150.2,43c0,3-0.9,5.2-2.7,7c-1.8,1.8-4,3-6.5,3h-37c0-4,0.9-5.1,2.7-6.9c1.8-1.8,4-3.1,6.6-3.1
	H150.2z"/>
<path id="XMLID_5_" class="st0" d="M128.3,72h-1.6H124v9h16.6c2.5,0,4.7-0.8,6.5-2.6c1.8-1.8,2.7-3.4,2.7-6.4H128.3z"/>
<path id="XMLID_9_" class="st0" d="M122,67.1v-1.2V55h-9v16.7c0,2.6,0.8,4.7,2.6,6.5c1.8,1.8,4.4,2.6,6.4,2.6V67.1z"/>
<path id="XMLID_1_" class="st0" d="M122,41h-8.8c0,0-0.2-10,8.8-10V41z"/>
</svg>
